<svg xmlns="http://www.w3.org/2000/svg" width="248" height="61" viewBox="0 0 248 61">
  <g id="Logo" transform="translate(-50 -17)">
    <rect id="Rectangle_31" data-name="Rectangle 31" width="213" height="5" transform="translate(85 73)" fill="#ffd117"/>
    <g id="Untitled-1" transform="translate(50.002 20)">
      <path id="Path_1" data-name="Path 1" d="M64.6,35.685c0,3.4-13.582,9.9-30.354,9.9s-30.354-6.5-30.354-9.9,13.582-2.42,30.354-2.42S64.6,32.289,64.6,35.685Z" transform="translate(1.459 12.417)" fill="#ffd117"/>
      <ellipse id="Ellipse_4" data-name="Ellipse 4" cx="30.354" cy="6.159" rx="30.354" ry="6.159" transform="translate(5.349 41.943)" fill="#231f20"/>
      <path id="Path_2" data-name="Path 2" d="M18.035,21.8c-1.059.179-2.048.316-3,.412L9.8,15.6c.646-.467,1.375-.962,2.158-1.443L18.035,21.8Z" transform="translate(3.673 5.306)" fill="#231f20"/>
      <path id="Path_3" data-name="Path 3" d="M52.061,13.235c-1.581.866-3.354,1.773-5.293,2.667h-6.8l-.894,3.217c-.99.385-2.021.77-3.052,1.114l1.224-4.385H23.728l2.1,7.589c-.852.22-1.7.454-2.53.646L21.02,15.846H13.94c2.048-1.059,4.372-2.172,6.9-3.272l-.261.66h8.015L27.3,9.99c.8-.3,1.622-.591,2.433-.866l.742,1.9,1-2.5c1.086-.371,2.145-.7,3.189-1.031l-2.282,5.733h7.987l-2.667-6.64c.866-.247,1.7-.467,2.543-.674l2.035,5.114,2.475-6.186c1.045-.247,2.076-.44,3.052-.6l-3.588,9h7.822Z" transform="translate(5.225 1.585)" fill="#231f20"/>
      <path id="Path_4" data-name="Path 4" d="M45.443,11.672c-.7.454-1.443.907-2.241,1.361L39.27,4.221c.935-.151,1.828-.275,2.667-.371l3.519,7.822Z" transform="translate(14.717 1.443)" fill="#231f20"/>
      <g id="Layer_7" data-name="Layer 7" transform="translate(10.025)">
        <path id="Path_5" data-name="Path 5" d="M58.349,14.915,57.235,12.44,53.716,4.618,52.465,1.8c-1.265.11-2.612.275-4,.481L47.09,5.745l-2.475,6.186L42.581,6.818,41.316,3.67c-.839.192-1.691.385-2.557.6l1.292,3.217,2.667,6.654H41.3l-6.585-.014L37,8.4l1.65-4.11c-1.031.275-2.048.564-3.121.852L33.81,9.43l-1,2.5-.742-1.9L30.7,6.625c-.7.22-1.416.454-2.1.7-.124.041-.22.082-.344.124l1.375,3.464,1.292,3.244H22.908l.261-.66,1.98-4.922c-1.114.412-2.227.852-3.313,1.292l-.825,2.09-.6-1.512c-.825.371-1.636.715-2.42,1.059l1.059,2.667h-6.6c-1.65.852-3.217,1.718-4.647,2.6l2.763,3.506L15.8,26.889l3,3.739L31.775,46.974a1.307,1.307,0,0,0,1.828.206,1.458,1.458,0,0,0,.206-.206L58.184,16.29a1.343,1.343,0,0,0,.247-.577,1.031,1.031,0,0,0,0-.577,1.209,1.209,0,0,0-.069-.206ZM50.128,5.141,50.6,3.972l.454,1,3.932,8.812.151.344H46.526l3.588-9ZM21.644,30.01l-2.859-3.574-6.076-7.644-1.581-1.98,5.114-.041h4.715l2.365-.014L25.6,24.992l1.031,3.781,3.189,11.52L21.644,30.01ZM32.793,41.227,29.15,28.085l-1-3.726-2.1-7.589H39.556l-1.224,4.385-1.182,4.3Zm2.956-.921,4.44-15.988,1.182-4.289.894-3.217H54.458l-1.127,1.43L35.762,40.306Z" transform="translate(-7.101 0.675)" fill="#ffd117"/>
        <path id="Path_6" data-name="Path 6" d="M48.641,2.956l.137-.344H40.805l.674,1.718c-.839.192-1.691.385-2.557.6l-.055-.124-.055.137c-1.031.275-2.048.564-3.121.852l1.292-3.2H29.01l1.842,4.688c-.7.22-1.416.454-2.1.7-.124.041-.22.082-.344.124l-1.32-3.286-1.773,4.4c-1.114.412-2.227.852-3.313,1.292l3.134-7.9H17.16l3.409,8.482c-.825.371-1.636.715-2.42,1.059l-3-7.506L10.6,14.82H12.61c-1.65.852-3.217,1.718-4.647,2.6l-.385-.467A1.355,1.355,0,0,1,7.4,15.589L14.053.784A1.368,1.368,0,0,1,15.277,0H50.69a1.314,1.314,0,0,1,1.2.784l.77,1.691c-1.265.11-2.612.275-4,.481Z" transform="translate(-7.292)" fill="#ffd117"/>
      </g>
      <path id="Path_7" data-name="Path 7" d="M69.315,4.927c-.962-2.791-6.269-3.781-13.926-3.066-1.265.11-2.612.275-4,.481L50.014,5.807l-2.475,6.186L45.5,6.879,44.24,3.731c-.839.192-1.691.385-2.557.6l1.292,3.217,2.667,6.654H44.226l-6.585-.014L39.923,8.46l1.65-4.11c-1.031.275-2.048.564-3.121.852L36.734,9.491l-1,2.5-.742-1.9L33.627,6.686c-.7.22-1.416.454-2.1.7-.124.041-.22.082-.344.124l1.375,3.464,1.292,3.244H25.832l.261-.66,1.98-4.922c-1.114.412-2.227.852-3.313,1.292l-.825,2.09-.6-1.512c-.825.371-1.636.715-2.42,1.059l1.059,2.667h-6.6c-1.65.852-3.217,1.718-4.647,2.6C3.328,21.272-.879,25.7.152,28.7,1.4,32.353,10.078,32.9,21.708,30.662c.935-.179,1.883-.371,2.859-.591,1.622-.344,3.286-.77,4.99-1.237.839-.206,1.65-.454,2.5-.7,1.938-.564,3.9-1.182,5.9-1.883.7-.247,1.416-.481,2.09-.742,1.031-.371,2.048-.742,3.052-1.127A109.457,109.457,0,0,0,56.227,18.3c1.883-1.045,3.588-2.09,5.1-3.121,5.76-3.9,8.881-7.63,7.973-10.256ZM9.5,25.479c-.44-1.265,1.059-3.121,3.973-5.183l5.238,6.612c-5.21.591-8.675.179-9.211-1.43Zm12.208,1-6.076-7.644-1.581-1.98,5.114-.041H23.88l2.365-.014,2.282,8.235C26.093,25.644,23.8,26.139,21.708,26.483ZM41.243,21.19c-.481.192-.976.344-1.457.522-3.011,1.031-5.939,1.938-8.73,2.681l-2.1-7.589H42.466Zm11.809-16,.467-1.169.454,1L57.9,13.835c-.192.11-.4.22-.632.344H49.45l3.588-9ZM44.295,20.076l.894-3.217h6.8c-2.351,1.1-4.949,2.172-7.7,3.217Zm15.864-7.589L56.64,4.666c5.279-.632,8.771-.206,9.334,1.388.522,1.526-1.7,3.849-5.815,6.42Z" transform="translate(0 0.613)" fill="#231f20"/>
    </g>
    <text id="JEWELRY" transform="translate(130 60)" font-size="40" font-family="SegoeUI, Segoe UI" letter-spacing="0.01em"><tspan x="0" y="0">JEWELRY</tspan></text>
  </g>
</svg>
